<svg width="54" height="54" viewBox="0 0 54 54" fill="none" xmlns="http://www.w3.org/2000/svg">
<path d="M34.2074 2.3902C33.9758 2.14637 33.6584 2 33.3295 2H13.6342C9.99988 2 7 4.98794 7 8.62186V45.8658C7 49.5001 9.99988 52.488 13.6342 52.488H40.3658C44.0001 52.488 47 49.5001 47 45.8658V16.2926C47 15.9756 46.8536 15.6709 46.6464 15.439L34.2074 2.3902ZM34.561 6.30492L42.8904 15.0488H37.4757C35.866 15.0488 34.561 13.7561 34.561 12.1464V6.30492ZM40.3658 50.049H13.6342C11.3538 50.049 9.43904 48.1589 9.43904 45.8658V8.62186C9.43904 6.34151 11.3415 4.43904 13.6342 4.43904H32.1219V12.1464C32.1219 15.1097 34.5124 17.4878 37.4757 17.4878H44.561V45.8658C44.561 48.1589 42.6585 50.049 40.3658 50.049Z" fill="white"/>
<path d="M37.0366 41.6345H16.9634C16.2928 41.6345 15.7439 42.183 15.7439 42.854C15.7439 43.5246 16.2928 44.0735 16.9634 44.0735H37.0489C37.7196 44.0735 38.2685 43.5246 38.2685 42.854C38.2685 42.183 37.7196 41.6345 37.0366 41.6345Z" fill="white"/>
<path d="M20.3291 39.8052H33.6707C34.3413 39.8052 34.9268 39.244 34.9268 38.5733V32.9391C34.9268 29.1222 31.7925 26.0245 27.9756 26.0245H26.0242C22.2073 26.0245 19.073 29.1222 19.073 32.9391V38.5733C19.073 39.244 19.6585 39.8052 20.3291 39.8052ZM21.512 32.9391C21.512 30.4758 23.5609 28.4635 26.0242 28.4635H27.9756C30.4389 28.4635 32.4877 30.4635 32.4877 32.9391V37.3661H21.512V32.9391Z" fill="white"/>
<path d="M26.9999 25.8415C29.8049 25.8415 32.0852 23.5612 32.0852 20.7562C32.0852 17.9512 29.8049 15.6709 26.9999 15.6709C24.1949 15.6709 21.9146 17.9512 21.9146 20.7562C21.9146 23.5612 24.1949 25.8415 26.9999 25.8415ZM26.9999 18.1099C28.4632 18.1099 29.6462 19.2929 29.6462 20.7562C29.6462 22.2196 28.4632 23.4025 26.9999 23.4025C25.5365 23.4025 24.3536 22.2196 24.3536 20.7562C24.3536 19.2929 25.5365 18.1099 26.9999 18.1099Z" fill="white"/>
</svg>
