<svg width="54" height="54" viewBox="0 0 54 54" fill="none" xmlns="http://www.w3.org/2000/svg">
<path d="M53.0991 28.4188C50.1987 19.0868 40.9928 12.7184 29.9584 12.5292V1.62093C29.9584 1.1165 29.517 0.675125 29.0126 0.675125C28.8234 0.675125 28.6343 0.738179 28.4451 0.864286L0.386204 21.1676C-0.0551721 21.4829 -0.118226 22.0504 0.197043 22.4917C0.260097 22.5548 0.32315 22.6178 0.386204 22.6809L28.4451 42.8581C28.8865 43.1734 29.454 43.0473 29.7693 42.6689C29.8954 42.4798 29.9584 42.2906 29.9584 42.1014V31.2562C36.7682 31.2562 42.5061 34.4719 44.5238 39.3271C46.2263 43.4886 44.8391 47.9654 40.8037 51.6856C40.4253 52.0639 40.3623 52.6314 40.7406 53.0097C40.9298 53.1989 41.182 53.325 41.4342 53.325H42.1908C42.38 53.325 42.5692 53.262 42.6953 53.1359C51.9642 47.0196 55.9366 37.4985 53.0991 28.4188Z" fill="#FFA600"/>
</svg>
